<svg xmlns="http://www.w3.org/2000/svg" viewBox="0 0 64 64" width="64" height="64"><rect width="64" height="64" rx="0" fill="#FAFAF7"/><path fill="#0F2A44" d="M12.431359999999994 46.320640000000004Q11.069439999999995 46.320640000000004 10.137599999999996 45.89056000000001Q9.205759999999994 45.460480000000004 8.990719999999996 44.42112Q9.134079999999996 43.41760000000001 9.743359999999996 42.96960000000001Q10.352639999999996 42.52160000000001 11.320319999999995 42.52160000000001Q12.144639999999995 42.52160000000001 12.735999999999995 42.790400000000005Q13.327359999999995 43.059200000000004 14.044159999999996 43.74016L14.832639999999996 44.45696Q14.975999999999996 44.026880000000006 15.083519999999996 43.56096Q15.226879999999996 42.91584 15.298559999999995 42.05568Q15.370239999999995 41.19552 15.406079999999996 39.94112Q15.441919999999996 38.68672 15.441919999999996 36.89472000000001V32.701440000000005Q15.441919999999996 31.554560000000002 15.423999999999996 30.156800000000004Q15.406079999999996 28.759040000000002 15.406079999999996 26.94912Q15.406079999999996 25.139200000000002 15.406079999999996 22.809600000000003Q15.370239999999995 21.41184 15.370239999999995 19.72736L11.463679999999995 19.512320000000003V17.541120000000003H22.96832V19.512320000000003L19.599359999999997 19.72736Q19.599359999999997 21.34016 19.599359999999997 22.9888Q19.563519999999997 25.74848 19.563519999999997 28.544000000000004V34.70848Q19.563519999999997 36.751360000000005 19.455999999999996 38.184960000000004Q19.348479999999995 39.61856 19.079679999999996 40.67584000000001Q18.810879999999997 41.73312000000001 18.398719999999997 42.52160000000001Q17.986559999999997 43.310080000000006 17.377279999999995 44.026880000000006Q16.481279999999995 45.17376 15.244799999999994 45.74720000000001Q14.008319999999996 46.320640000000004 12.431359999999994 46.320640000000004Z M24.079359999999998 41.446400000000004V39.4752L27.48416 39.224320000000006V19.72736L24.330239999999996 19.512320000000003V17.541120000000003H32.179199999999994L39.598079999999996 36.608000000000004L40.99584 32.629760000000005L46.6944 17.541120000000003H55.009280000000004V19.512320000000003L51.64032 19.72736Q51.64032 20.444160000000004 51.64032 21.196800000000003Q51.60448 23.02464 51.60448 24.852480000000003V34.06336Q51.60448 35.927040000000005 51.64032 37.75488Q51.64032 38.50752000000001 51.64032 39.260160000000006L55.009280000000004 39.4752V41.446400000000004H44.11392V39.4752L47.4112 39.260160000000006Q47.4112 38.400000000000006 47.4112 37.539840000000005V29.76256L47.44704 20.94592L46.12096 24.816640000000003L39.777280000000005 41.446400000000004H37.376L29.347839999999998 20.766720000000003L29.742079999999998 28.866560000000003V39.224320000000006L33.03936 39.4752V41.446400000000004Z"/></svg>